<svg version="1.1" xmlns="http://www.w3.org/2000/svg" xmlns:xlink="http://www.w3.org/1999/xlink" width="308.2353515625" height="137"><defs/><g><text fill="#eeeeee" stroke="none" font-family="Arial" font-size="24px" font-style="normal" font-weight="normal" text-decoration="none" x="0" y="0"></text><text fill="#eeeeee" stroke="none" font-family="Arial" font-size="24px" font-style="normal" font-weight="normal" text-decoration="none" x="0" y="30"></text><text fill="#eeeeee" stroke="none" font-family="Arial" font-size="24px" font-style="normal" font-weight="normal" text-decoration="none" x="0" y="60"></text><text fill="#eeeeee" stroke="none" font-family="Arial" font-size="24px" font-style="normal" font-weight="normal" text-decoration="none" x="0" y="90"></text><text fill="#eeeeee" stroke="none" font-family="Arial" font-size="24px" font-style="normal" font-weight="normal" text-decoration="none" x="0" y="120"></text><text fill="#eeeeee" stroke="none" font-family="Arial" font-size="24px" font-style="normal" font-weight="normal" text-decoration="none" x="200" y="0"></text><text fill="#eeeeee" stroke="none" font-family="Arial" font-size="24px" font-style="normal" font-weight="normal" text-decoration="none" x="200" y="30"></text><text fill="#eeeeee" stroke="none" font-family="Arial" font-size="24px" font-style="normal" font-weight="normal" text-decoration="none" x="200" y="60"></text><text fill="#eeeeee" stroke="none" font-family="Arial" font-size="24px" font-style="normal" font-weight="normal" text-decoration="none" x="200" y="90"></text><text fill="#eeeeee" stroke="none" font-family="Arial" font-size="24px" font-style="normal" font-weight="normal" text-decoration="none" x="200" y="120"></text><g transform="translate(-86,-166) scale(1,1)"><rect fill="#C0C0C0" stroke="none" x="103" y="183" width="72.2353515625" height="117" opacity="0.2"/></g><g transform="translate(-86,-166) scale(1,1)"><rect fill="#ffffff" stroke="none" x="96" y="176" width="72.2353515625" height="117"/></g><g transform="translate(-86,-166) scale(1,1)"><path fill="none" stroke="#000000" d="M 96 176 L 168.2353515625 176 L 168.2353515625 293 L 96 293 L 96 176 Z Z" stroke-miterlimit="10"/></g><g transform="translate(-86,-166) scale(1,1)"><path fill="none" stroke="#000000" d="M 96 201 L 168.2353515625 201" stroke-miterlimit="10"/></g><g transform="translate(-86,-166) scale(1,1)"><path fill="none" stroke="#000000" d="M 96 284 L 168.2353515625 284" stroke-miterlimit="10"/></g><g transform="translate(-86,-166) scale(1,1)"><g><path fill="none" stroke="none"/><text fill="#000000" stroke="none" font-family="Arial" font-size="13px" font-style="normal" font-weight="bold" text-decoration="none" x="105.7431640625" y="195.5">Message</text></g></g><g transform="translate(-86,-166) scale(1,1)"><g><path fill="none" stroke="none"/><text fill="#000000" stroke="none" font-family="Arial" font-size="13px" font-style="normal" font-weight="normal" text-decoration="none" x="101" y="218.5">+content</text></g></g><g transform="translate(-86,-166) scale(1,1)"><g><path fill="none" stroke="none"/><text fill="#000000" stroke="none" font-family="Arial" font-size="13px" font-style="normal" font-weight="normal" text-decoration="none" x="101" y="233.5">+ID</text></g></g><g transform="translate(-86,-166) scale(1,1)"><g><path fill="none" stroke="none"/><text fill="#000000" stroke="none" font-family="Arial" font-size="13px" font-style="normal" font-weight="normal" text-decoration="none" x="101" y="248.5">+sender</text></g></g><g transform="translate(-86,-166) scale(1,1)"><g><path fill="none" stroke="none"/><text fill="#000000" stroke="none" font-family="Arial" font-size="13px" font-style="normal" font-weight="normal" text-decoration="none" x="101" y="263.5">+receiver</text></g></g><g transform="translate(-86,-166) scale(1,1)"><g><path fill="none" stroke="none"/><text fill="#000000" stroke="none" font-family="Arial" font-size="13px" font-style="normal" font-weight="normal" text-decoration="none" x="101" y="278.5">+title</text></g></g><g transform="translate(-86,-166) scale(1,1)"><rect fill="#C0C0C0" stroke="none" x="319" y="199" width="72.2353515625" height="87" opacity="0.2"/></g><g transform="translate(-86,-166) scale(1,1)"><rect fill="#ffffff" stroke="none" x="312" y="192" width="72.2353515625" height="87"/></g><g transform="translate(-86,-166) scale(1,1)"><path fill="none" stroke="#000000" d="M 312 192 L 384.2353515625 192 L 384.2353515625 279 L 312 279 L 312 192 Z Z" stroke-miterlimit="10"/></g><g transform="translate(-86,-166) scale(1,1)"><path fill="none" stroke="#000000" d="M 312 217 L 384.2353515625 217" stroke-miterlimit="10"/></g><g transform="translate(-86,-166) scale(1,1)"><path fill="none" stroke="#000000" d="M 312 270 L 384.2353515625 270" stroke-miterlimit="10"/></g><g transform="translate(-86,-166) scale(1,1)"><g><path fill="none" stroke="none"/><text fill="#000000" stroke="none" font-family="Arial" font-size="13px" font-style="normal" font-weight="bold" text-decoration="none" x="325.719970703125" y="211.5">Mailbox</text></g></g><g transform="translate(-86,-166) scale(1,1)"><g><path fill="none" stroke="none"/><text fill="#000000" stroke="none" font-family="Arial" font-size="13px" font-style="normal" font-weight="normal" text-decoration="none" x="317" y="234.5">+date</text></g></g><g transform="translate(-86,-166) scale(1,1)"><g><path fill="none" stroke="none"/><text fill="#000000" stroke="none" font-family="Arial" font-size="13px" font-style="normal" font-weight="normal" text-decoration="none" x="317" y="249.5">+sender</text></g></g><g transform="translate(-86,-166) scale(1,1)"><g><path fill="none" stroke="none"/><text fill="#000000" stroke="none" font-family="Arial" font-size="13px" font-style="normal" font-weight="normal" text-decoration="none" x="317" y="264.5">+id</text></g></g><g transform="translate(-86,-166) scale(1,1)"><path fill="none" stroke="#000000" d="M 169 234 L 311 235" stroke-miterlimit="10"/></g><g transform="translate(-86,-166) scale(1,1)"><g><path fill="none" stroke="none"/><text fill="#000000" stroke="none" font-family="Arial" font-size="13px" font-style="normal" font-weight="normal" text-decoration="none" x="271.5" y="226.5">+1..n</text></g></g><g transform="translate(-86,-166) scale(1,1)"><g><path fill="none" stroke="none"/><text fill="#000000" stroke="none" font-family="Arial" font-size="13px" font-style="normal" font-weight="normal" text-decoration="none" x="175.5" y="228.5">+0..1</text></g></g></g></svg>