<svg version="1.1" xmlns="http://www.w3.org/2000/svg" xmlns:xlink="http://www.w3.org/1999/xlink" width="584.32470703125" height="363"><defs/><g><text fill="#eeeeee" stroke="none" font-family="Arial" font-size="24px" font-style="normal" font-weight="normal" text-decoration="none" x="0" y="0"></text><text fill="#eeeeee" stroke="none" font-family="Arial" font-size="24px" font-style="normal" font-weight="normal" text-decoration="none" x="0" y="30"></text><text fill="#eeeeee" stroke="none" font-family="Arial" font-size="24px" font-style="normal" font-weight="normal" text-decoration="none" x="0" y="60"></text><text fill="#eeeeee" stroke="none" font-family="Arial" font-size="24px" font-style="normal" font-weight="normal" text-decoration="none" x="0" y="90"></text><text fill="#eeeeee" stroke="none" font-family="Arial" font-size="24px" font-style="normal" font-weight="normal" text-decoration="none" x="0" y="120"></text><text fill="#eeeeee" stroke="none" font-family="Arial" font-size="24px" font-style="normal" font-weight="normal" text-decoration="none" x="0" y="150"></text><text fill="#eeeeee" stroke="none" font-family="Arial" font-size="24px" font-style="normal" font-weight="normal" text-decoration="none" x="0" y="180"></text><text fill="#eeeeee" stroke="none" font-family="Arial" font-size="24px" font-style="normal" font-weight="normal" text-decoration="none" x="0" y="210"></text><text fill="#eeeeee" stroke="none" font-family="Arial" font-size="24px" font-style="normal" font-weight="normal" text-decoration="none" x="0" y="240"></text><text fill="#eeeeee" stroke="none" font-family="Arial" font-size="24px" font-style="normal" font-weight="normal" text-decoration="none" x="0" y="270"></text><text fill="#eeeeee" stroke="none" font-family="Arial" font-size="24px" font-style="normal" font-weight="normal" text-decoration="none" x="0" y="300"></text><text fill="#eeeeee" stroke="none" font-family="Arial" font-size="24px" font-style="normal" font-weight="normal" text-decoration="none" x="0" y="330"></text><text fill="#eeeeee" stroke="none" font-family="Arial" font-size="24px" font-style="normal" font-weight="normal" text-decoration="none" x="0" y="360"></text><text fill="#eeeeee" stroke="none" font-family="Arial" font-size="24px" font-style="normal" font-weight="normal" text-decoration="none" x="200" y="0"></text><text fill="#eeeeee" stroke="none" font-family="Arial" font-size="24px" font-style="normal" font-weight="normal" text-decoration="none" x="200" y="30"></text><text fill="#eeeeee" stroke="none" font-family="Arial" font-size="24px" font-style="normal" font-weight="normal" text-decoration="none" x="200" y="60"></text><text fill="#eeeeee" stroke="none" font-family="Arial" font-size="24px" font-style="normal" font-weight="normal" text-decoration="none" x="200" y="90"></text><text fill="#eeeeee" stroke="none" font-family="Arial" font-size="24px" font-style="normal" font-weight="normal" text-decoration="none" x="200" y="120"></text><text fill="#eeeeee" stroke="none" font-family="Arial" font-size="24px" font-style="normal" font-weight="normal" text-decoration="none" x="200" y="150"></text><text fill="#eeeeee" stroke="none" font-family="Arial" font-size="24px" font-style="normal" font-weight="normal" text-decoration="none" x="200" y="180"></text><text fill="#eeeeee" stroke="none" font-family="Arial" font-size="24px" font-style="normal" font-weight="normal" text-decoration="none" x="200" y="210"></text><text fill="#eeeeee" stroke="none" font-family="Arial" font-size="24px" font-style="normal" font-weight="normal" text-decoration="none" x="200" y="240"></text><text fill="#eeeeee" stroke="none" font-family="Arial" font-size="24px" font-style="normal" font-weight="normal" text-decoration="none" x="200" y="270"></text><text fill="#eeeeee" stroke="none" font-family="Arial" font-size="24px" font-style="normal" font-weight="normal" text-decoration="none" x="200" y="300"></text><text fill="#eeeeee" stroke="none" font-family="Arial" font-size="24px" font-style="normal" font-weight="normal" text-decoration="none" x="200" y="330"></text><text fill="#eeeeee" stroke="none" font-family="Arial" font-size="24px" font-style="normal" font-weight="normal" text-decoration="none" x="200" y="360"></text><text fill="#eeeeee" stroke="none" font-family="Arial" font-size="24px" font-style="normal" font-weight="normal" text-decoration="none" x="400" y="0"></text><text fill="#eeeeee" stroke="none" font-family="Arial" font-size="24px" font-style="normal" font-weight="normal" text-decoration="none" x="400" y="30"></text><text fill="#eeeeee" stroke="none" font-family="Arial" font-size="24px" font-style="normal" font-weight="normal" text-decoration="none" x="400" y="60"></text><text fill="#eeeeee" stroke="none" font-family="Arial" font-size="24px" font-style="normal" font-weight="normal" text-decoration="none" x="400" y="90"></text><text fill="#eeeeee" stroke="none" font-family="Arial" font-size="24px" font-style="normal" font-weight="normal" text-decoration="none" x="400" y="120"></text><text fill="#eeeeee" stroke="none" font-family="Arial" font-size="24px" font-style="normal" font-weight="normal" text-decoration="none" x="400" y="150"></text><text fill="#eeeeee" stroke="none" font-family="Arial" font-size="24px" font-style="normal" font-weight="normal" text-decoration="none" x="400" y="180"></text><text fill="#eeeeee" stroke="none" font-family="Arial" font-size="24px" font-style="normal" font-weight="normal" text-decoration="none" x="400" y="210"></text><text fill="#eeeeee" stroke="none" font-family="Arial" font-size="24px" font-style="normal" font-weight="normal" text-decoration="none" x="400" y="240"></text><text fill="#eeeeee" stroke="none" font-family="Arial" font-size="24px" font-style="normal" font-weight="normal" text-decoration="none" x="400" y="270"></text><text fill="#eeeeee" stroke="none" font-family="Arial" font-size="24px" font-style="normal" font-weight="normal" text-decoration="none" x="400" y="300"></text><text fill="#eeeeee" stroke="none" font-family="Arial" font-size="24px" font-style="normal" font-weight="normal" text-decoration="none" x="400" y="330"></text><text fill="#eeeeee" stroke="none" font-family="Arial" font-size="24px" font-style="normal" font-weight="normal" text-decoration="none" x="400" y="360"></text><g transform="translate(-30,-78) scale(1,1)"><rect fill="#C0C0C0" stroke="none" x="143" y="167" width="53.7890625" height="44" opacity="0.2"/></g><g transform="translate(-30,-78) scale(1,1)"><rect fill="#ffffff" stroke="none" x="136" y="160" width="53.7890625" height="44"/></g><g transform="translate(-30,-78) scale(1,1)"><path fill="none" stroke="#000000" d="M 136 160 L 189.7890625 160 L 189.7890625 204 L 136 204 L 136 160 Z Z" stroke-miterlimit="10"/></g><g transform="translate(-30,-78) scale(1,1)"><path fill="none" stroke="#000000" d="M 136 185 L 189.7890625 185" stroke-miterlimit="10"/></g><g transform="translate(-30,-78) scale(1,1)"><path fill="none" stroke="#000000" d="M 136 195 L 189.7890625 195" stroke-miterlimit="10"/></g><g transform="translate(-30,-78) scale(1,1)"><g><path fill="none" stroke="none"/><text fill="#000000" stroke="none" font-family="Arial" font-size="13px" font-style="normal" font-weight="bold" text-decoration="none" x="141.94091796875" y="179.5">Course</text></g></g><g transform="translate(-30,-78) scale(1,1)"><rect fill="#C0C0C0" stroke="none" x="335" y="95" width="50.919921875" height="44" opacity="0.2"/></g><g transform="translate(-30,-78) scale(1,1)"><rect fill="#ffffff" stroke="none" x="328" y="88" width="50.919921875" height="44"/></g><g transform="translate(-30,-78) scale(1,1)"><path fill="none" stroke="#000000" d="M 328 88 L 378.919921875 88 L 378.919921875 132 L 328 132 L 328 88 Z Z" stroke-miterlimit="10"/></g><g transform="translate(-30,-78) scale(1,1)"><path fill="none" stroke="#000000" d="M 328 113 L 378.919921875 113" stroke-miterlimit="10"/></g><g transform="translate(-30,-78) scale(1,1)"><path fill="none" stroke="#000000" d="M 328 123 L 378.919921875 123" stroke-miterlimit="10"/></g><g transform="translate(-30,-78) scale(1,1)"><g><path fill="none" stroke="none"/><text fill="#000000" stroke="none" font-family="Arial" font-size="13px" font-style="normal" font-weight="bold" text-decoration="none" x="338.285888671875" y="107.5">Topic</text></g></g><g transform="translate(-30,-78) scale(1,1)"><path fill="none" stroke="#000000" d="M 191 171 L 327 120" stroke-miterlimit="10"/></g><g transform="translate(-30,-78) scale(1,1)"><g><path fill="none" stroke="none"/><text fill="#000000" stroke="none" font-family="Arial" font-size="13px" font-style="normal" font-weight="normal" text-decoration="none" x="196.58544921875" y="153.5">+1..*</text></g></g><g transform="translate(-30,-78) scale(1,1)"><g><path fill="none" stroke="none"/><text fill="#000000" stroke="none" font-family="Arial" font-size="13px" font-style="normal" font-weight="normal" text-decoration="none" x="283.5" y="121.5">+1..*</text></g></g><g transform="translate(-30,-78) scale(1,1)"><rect fill="#C0C0C0" stroke="none" x="47" y="311" width="72.2353515625" height="57" opacity="0.2"/></g><g transform="translate(-30,-78) scale(1,1)"><rect fill="#ffffff" stroke="none" x="40" y="304" width="72.2353515625" height="57"/></g><g transform="translate(-30,-78) scale(1,1)"><path fill="none" stroke="#000000" d="M 40 304 L 112.2353515625 304 L 112.2353515625 361 L 40 361 L 40 304 Z Z" stroke-miterlimit="10"/></g><g transform="translate(-30,-78) scale(1,1)"><path fill="none" stroke="#000000" d="M 40 329 L 112.2353515625 329" stroke-miterlimit="10"/></g><g transform="translate(-30,-78) scale(1,1)"><path fill="none" stroke="#000000" d="M 40 352 L 112.2353515625 352" stroke-miterlimit="10"/></g><g transform="translate(-30,-78) scale(1,1)"><g><path fill="none" stroke="none"/><text fill="#000000" stroke="none" font-family="Arial" font-size="13px" font-style="normal" font-weight="bold" text-decoration="none" x="61.18798828125" y="323.5">Tutor</text></g></g><g transform="translate(-30,-78) scale(1,1)"><g><path fill="none" stroke="none"/><text fill="#000000" stroke="none" font-family="Arial" font-size="13px" font-style="normal" font-weight="normal" text-decoration="none" x="45" y="346.5">+area</text></g></g><g transform="translate(-30,-78) scale(1,1)"><path fill="none" stroke="#000000" d="M 93 303 L 149 205" stroke-miterlimit="10"/></g><g transform="translate(-30,-78) scale(1,1)"><g><path fill="none" stroke="none"/><text fill="#000000" stroke="none" font-family="Arial" font-size="13px" font-style="normal" font-weight="normal" text-decoration="none" x="74.5" y="289.5">+1</text></g></g><g transform="translate(-30,-78) scale(1,1)"><g><path fill="none" stroke="none"/><text fill="#000000" stroke="none" font-family="Arial" font-size="13px" font-style="normal" font-weight="normal" text-decoration="none" x="103.5" y="213.5">+1..n</text></g></g><g transform="translate(-30,-78) scale(1,1)"><rect fill="#C0C0C0" stroke="none" x="231" y="351" width="92.6875" height="87" opacity="0.2"/></g><g transform="translate(-30,-78) scale(1,1)"><rect fill="#ffffff" stroke="none" x="224" y="344" width="92.6875" height="87"/></g><g transform="translate(-30,-78) scale(1,1)"><path fill="none" stroke="#000000" d="M 224 344 L 316.6875 344 L 316.6875 431 L 224 431 L 224 344 Z Z" stroke-miterlimit="10"/></g><g transform="translate(-30,-78) scale(1,1)"><path fill="none" stroke="#000000" d="M 224 369 L 316.6875 369" stroke-miterlimit="10"/></g><g transform="translate(-30,-78) scale(1,1)"><path fill="none" stroke="#000000" d="M 224 379 L 316.6875 379" stroke-miterlimit="10"/></g><g transform="translate(-30,-78) scale(1,1)"><g><path fill="none" stroke="none"/><text fill="#000000" stroke="none" font-family="Arial" font-size="13px" font-style="normal" font-weight="bold" text-decoration="none" x="233.4892578125" y="363.5">Organization</text></g></g><g transform="translate(-30,-78) scale(1,1)"><g><path fill="none" stroke="none"/><text fill="#000000" stroke="none" font-family="Arial" font-size="13px" font-style="normal" font-weight="normal" text-decoration="none" x="229" y="396.5">+publish()</text></g></g><g transform="translate(-30,-78) scale(1,1)"><g><path fill="none" stroke="none"/><text fill="#000000" stroke="none" font-family="Arial" font-size="13px" font-style="normal" font-weight="normal" text-decoration="none" x="229" y="411.5">+maintain()</text></g></g><g transform="translate(-30,-78) scale(1,1)"><g><path fill="none" stroke="none"/><text fill="#000000" stroke="none" font-family="Arial" font-size="13px" font-style="normal" font-weight="normal" text-decoration="none" x="229" y="426.5">+assignTutor()</text></g></g><g transform="translate(-30,-78) scale(1,1)"><path fill="none" stroke="#000000" d="M 174 205 L 247 343" stroke-miterlimit="10"/></g><g transform="translate(-30,-78) scale(1,1)"><g><path fill="none" stroke="none"/><text fill="#000000" stroke="none" font-family="Arial" font-size="13px" font-style="normal" font-weight="normal" text-decoration="none" x="185.5" y="226.5">+1..*</text></g></g><g transform="translate(-30,-78) scale(1,1)"><g><path fill="none" stroke="none"/><text fill="#000000" stroke="none" font-family="Arial" font-size="13px" font-style="normal" font-weight="normal" text-decoration="none" x="240.5" y="319.5">+1</text></g></g><g transform="translate(-30,-78) scale(1,1)"><path fill="none" stroke="#000000" d="M 113 343 L 223 374" stroke-miterlimit="10"/></g><g transform="translate(-30,-78) scale(1,1)"><g><path fill="none" stroke="none"/><text fill="#000000" stroke="none" font-family="Arial" font-size="13px" font-style="normal" font-weight="normal" text-decoration="none" x="128.5" y="341.5">+1..*</text></g></g><g transform="translate(-30,-78) scale(1,1)"><g><path fill="none" stroke="none"/><text fill="#000000" stroke="none" font-family="Arial" font-size="13px" font-style="normal" font-weight="normal" text-decoration="none" x="194.5" y="358.5">+1</text></g></g><g transform="translate(-30,-78) scale(1,1)"><rect fill="#C0C0C0" stroke="none" x="463" y="255" width="148.32470703125" height="87" opacity="0.2"/></g><g transform="translate(-30,-78) scale(1,1)"><rect fill="#ffffff" stroke="none" x="456" y="248" width="148.32470703125" height="87"/></g><g transform="translate(-30,-78) scale(1,1)"><path fill="none" stroke="#000000" d="M 456 248 L 604.32470703125 248 L 604.32470703125 335 L 456 335 L 456 248 Z Z" stroke-miterlimit="10"/></g><g transform="translate(-30,-78) scale(1,1)"><path fill="none" stroke="#000000" d="M 456 273 L 604.32470703125 273" stroke-miterlimit="10"/></g><g transform="translate(-30,-78) scale(1,1)"><path fill="none" stroke="#000000" d="M 456 283 L 604.32470703125 283" stroke-miterlimit="10"/></g><g transform="translate(-30,-78) scale(1,1)"><g><path fill="none" stroke="none"/><text fill="#000000" stroke="none" font-family="Arial" font-size="13px" font-style="normal" font-weight="bold" text-decoration="none" x="491.873291015625" y="267.5">Administrator</text></g></g><g transform="translate(-30,-78) scale(1,1)"><g><path fill="none" stroke="none"/><text fill="#000000" stroke="none" font-family="Arial" font-size="13px" font-style="normal" font-weight="normal" text-decoration="none" x="461" y="300.5">+manageCourse()</text></g></g><g transform="translate(-30,-78) scale(1,1)"><g><path fill="none" stroke="none"/><text fill="#000000" stroke="none" font-family="Arial" font-size="13px" font-style="normal" font-weight="normal" text-decoration="none" x="461" y="315.5">+assignCourseToTutor()</text></g></g><g transform="translate(-30,-78) scale(1,1)"><g><path fill="none" stroke="none"/><text fill="#000000" stroke="none" font-family="Arial" font-size="13px" font-style="normal" font-weight="normal" text-decoration="none" x="461" y="330.5">+defineSchedule()</text></g></g><g transform="translate(-30,-78) scale(1,1)"><path fill="none" stroke="#000000" d="M 191 191 L 455 269" stroke-miterlimit="10"/></g><g transform="translate(-30,-78) scale(1,1)"><g><path fill="none" stroke="none"/><text fill="#000000" stroke="none" font-family="Arial" font-size="13px" font-style="normal" font-weight="normal" text-decoration="none" x="206.5" y="189.5">+1..*</text></g></g><g transform="translate(-30,-78) scale(1,1)"><g><path fill="none" stroke="none"/><text fill="#000000" stroke="none" font-family="Arial" font-size="13px" font-style="normal" font-weight="normal" text-decoration="none" x="426.5" y="253.5">+1</text></g></g></g></svg>