<svg version="1.1" xmlns="http://www.w3.org/2000/svg" xmlns:xlink="http://www.w3.org/1999/xlink" width="547.4306640625" height="613"><defs/><g><text fill="#eeeeee" stroke="none" font-family="Arial" font-size="24px" font-style="normal" font-weight="normal" text-decoration="none" x="0" y="0"></text><text fill="#eeeeee" stroke="none" font-family="Arial" font-size="24px" font-style="normal" font-weight="normal" text-decoration="none" x="0" y="30"></text><text fill="#eeeeee" stroke="none" font-family="Arial" font-size="24px" font-style="normal" font-weight="normal" text-decoration="none" x="0" y="60"></text><text fill="#eeeeee" stroke="none" font-family="Arial" font-size="24px" font-style="normal" font-weight="normal" text-decoration="none" x="0" y="90"></text><text fill="#eeeeee" stroke="none" font-family="Arial" font-size="24px" font-style="normal" font-weight="normal" text-decoration="none" x="0" y="120"></text><text fill="#eeeeee" stroke="none" font-family="Arial" font-size="24px" font-style="normal" font-weight="normal" text-decoration="none" x="0" y="150"></text><text fill="#eeeeee" stroke="none" font-family="Arial" font-size="24px" font-style="normal" font-weight="normal" text-decoration="none" x="0" y="180"></text><text fill="#eeeeee" stroke="none" font-family="Arial" font-size="24px" font-style="normal" font-weight="normal" text-decoration="none" x="0" y="210"></text><text fill="#eeeeee" stroke="none" font-family="Arial" font-size="24px" font-style="normal" font-weight="normal" text-decoration="none" x="0" y="240"></text><text fill="#eeeeee" stroke="none" font-family="Arial" font-size="24px" font-style="normal" font-weight="normal" text-decoration="none" x="0" y="270"></text><text fill="#eeeeee" stroke="none" font-family="Arial" font-size="24px" font-style="normal" font-weight="normal" text-decoration="none" x="0" y="300"></text><text fill="#eeeeee" stroke="none" font-family="Arial" font-size="24px" font-style="normal" font-weight="normal" text-decoration="none" x="0" y="330"></text><text fill="#eeeeee" stroke="none" font-family="Arial" font-size="24px" font-style="normal" font-weight="normal" text-decoration="none" x="0" y="360"></text><text fill="#eeeeee" stroke="none" font-family="Arial" font-size="24px" font-style="normal" font-weight="normal" text-decoration="none" x="0" y="390"></text><text fill="#eeeeee" stroke="none" font-family="Arial" font-size="24px" font-style="normal" font-weight="normal" text-decoration="none" x="0" y="420"></text><text fill="#eeeeee" stroke="none" font-family="Arial" font-size="24px" font-style="normal" font-weight="normal" text-decoration="none" x="0" y="450"></text><text fill="#eeeeee" stroke="none" font-family="Arial" font-size="24px" font-style="normal" font-weight="normal" text-decoration="none" x="0" y="480"></text><text fill="#eeeeee" stroke="none" font-family="Arial" font-size="24px" font-style="normal" font-weight="normal" text-decoration="none" x="0" y="510"></text><text fill="#eeeeee" stroke="none" font-family="Arial" font-size="24px" font-style="normal" font-weight="normal" text-decoration="none" x="0" y="540"></text><text fill="#eeeeee" stroke="none" font-family="Arial" font-size="24px" font-style="normal" font-weight="normal" text-decoration="none" x="0" y="570"></text><text fill="#eeeeee" stroke="none" font-family="Arial" font-size="24px" font-style="normal" font-weight="normal" text-decoration="none" x="0" y="600"></text><text fill="#eeeeee" stroke="none" font-family="Arial" font-size="24px" font-style="normal" font-weight="normal" text-decoration="none" x="200" y="0"></text><text fill="#eeeeee" stroke="none" font-family="Arial" font-size="24px" font-style="normal" font-weight="normal" text-decoration="none" x="200" y="30"></text><text fill="#eeeeee" stroke="none" font-family="Arial" font-size="24px" font-style="normal" font-weight="normal" text-decoration="none" x="200" y="60"></text><text fill="#eeeeee" stroke="none" font-family="Arial" font-size="24px" font-style="normal" font-weight="normal" text-decoration="none" x="200" y="90"></text><text fill="#eeeeee" stroke="none" font-family="Arial" font-size="24px" font-style="normal" font-weight="normal" text-decoration="none" x="200" y="120"></text><text fill="#eeeeee" stroke="none" font-family="Arial" font-size="24px" font-style="normal" font-weight="normal" text-decoration="none" x="200" y="150"></text><text fill="#eeeeee" stroke="none" font-family="Arial" font-size="24px" font-style="normal" font-weight="normal" text-decoration="none" x="200" y="180"></text><text fill="#eeeeee" stroke="none" font-family="Arial" font-size="24px" font-style="normal" font-weight="normal" text-decoration="none" x="200" y="210"></text><text fill="#eeeeee" stroke="none" font-family="Arial" font-size="24px" font-style="normal" font-weight="normal" text-decoration="none" x="200" y="240"></text><text fill="#eeeeee" stroke="none" font-family="Arial" font-size="24px" font-style="normal" font-weight="normal" text-decoration="none" x="200" y="270"></text><text fill="#eeeeee" stroke="none" font-family="Arial" font-size="24px" font-style="normal" font-weight="normal" text-decoration="none" x="200" y="300"></text><text fill="#eeeeee" stroke="none" font-family="Arial" font-size="24px" font-style="normal" font-weight="normal" text-decoration="none" x="200" y="330"></text><text fill="#eeeeee" stroke="none" font-family="Arial" font-size="24px" font-style="normal" font-weight="normal" text-decoration="none" x="200" y="360"></text><text fill="#eeeeee" stroke="none" font-family="Arial" font-size="24px" font-style="normal" font-weight="normal" text-decoration="none" x="200" y="390"></text><text fill="#eeeeee" stroke="none" font-family="Arial" font-size="24px" font-style="normal" font-weight="normal" text-decoration="none" x="200" y="420"></text><text fill="#eeeeee" stroke="none" font-family="Arial" font-size="24px" font-style="normal" font-weight="normal" text-decoration="none" x="200" y="450"></text><text fill="#eeeeee" stroke="none" font-family="Arial" font-size="24px" font-style="normal" font-weight="normal" text-decoration="none" x="200" y="480"></text><text fill="#eeeeee" stroke="none" font-family="Arial" font-size="24px" font-style="normal" font-weight="normal" text-decoration="none" x="200" y="510"></text><text fill="#eeeeee" stroke="none" font-family="Arial" font-size="24px" font-style="normal" font-weight="normal" text-decoration="none" x="200" y="540"></text><text fill="#eeeeee" stroke="none" font-family="Arial" font-size="24px" font-style="normal" font-weight="normal" text-decoration="none" x="200" y="570"></text><text fill="#eeeeee" stroke="none" font-family="Arial" font-size="24px" font-style="normal" font-weight="normal" text-decoration="none" x="200" y="600"></text><text fill="#eeeeee" stroke="none" font-family="Arial" font-size="24px" font-style="normal" font-weight="normal" text-decoration="none" x="400" y="0"></text><text fill="#eeeeee" stroke="none" font-family="Arial" font-size="24px" font-style="normal" font-weight="normal" text-decoration="none" x="400" y="30"></text><text fill="#eeeeee" stroke="none" font-family="Arial" font-size="24px" font-style="normal" font-weight="normal" text-decoration="none" x="400" y="60"></text><text fill="#eeeeee" stroke="none" font-family="Arial" font-size="24px" font-style="normal" font-weight="normal" text-decoration="none" x="400" y="90"></text><text fill="#eeeeee" stroke="none" font-family="Arial" font-size="24px" font-style="normal" font-weight="normal" text-decoration="none" x="400" y="120"></text><text fill="#eeeeee" stroke="none" font-family="Arial" font-size="24px" font-style="normal" font-weight="normal" text-decoration="none" x="400" y="150"></text><text fill="#eeeeee" stroke="none" font-family="Arial" font-size="24px" font-style="normal" font-weight="normal" text-decoration="none" x="400" y="180"></text><text fill="#eeeeee" stroke="none" font-family="Arial" font-size="24px" font-style="normal" font-weight="normal" text-decoration="none" x="400" y="210"></text><text fill="#eeeeee" stroke="none" font-family="Arial" font-size="24px" font-style="normal" font-weight="normal" text-decoration="none" x="400" y="240"></text><text fill="#eeeeee" stroke="none" font-family="Arial" font-size="24px" font-style="normal" font-weight="normal" text-decoration="none" x="400" y="270"></text><text fill="#eeeeee" stroke="none" font-family="Arial" font-size="24px" font-style="normal" font-weight="normal" text-decoration="none" x="400" y="300"></text><text fill="#eeeeee" stroke="none" font-family="Arial" font-size="24px" font-style="normal" font-weight="normal" text-decoration="none" x="400" y="330"></text><text fill="#eeeeee" stroke="none" font-family="Arial" font-size="24px" font-style="normal" font-weight="normal" text-decoration="none" x="400" y="360"></text><text fill="#eeeeee" stroke="none" font-family="Arial" font-size="24px" font-style="normal" font-weight="normal" text-decoration="none" x="400" y="390"></text><text fill="#eeeeee" stroke="none" font-family="Arial" font-size="24px" font-style="normal" font-weight="normal" text-decoration="none" x="400" y="420"></text><text fill="#eeeeee" stroke="none" font-family="Arial" font-size="24px" font-style="normal" font-weight="normal" text-decoration="none" x="400" y="450"></text><text fill="#eeeeee" stroke="none" font-family="Arial" font-size="24px" font-style="normal" font-weight="normal" text-decoration="none" x="400" y="480"></text><text fill="#eeeeee" stroke="none" font-family="Arial" font-size="24px" font-style="normal" font-weight="normal" text-decoration="none" x="400" y="510"></text><text fill="#eeeeee" stroke="none" font-family="Arial" font-size="24px" font-style="normal" font-weight="normal" text-decoration="none" x="400" y="540"></text><text fill="#eeeeee" stroke="none" font-family="Arial" font-size="24px" font-style="normal" font-weight="normal" text-decoration="none" x="400" y="570"></text><text fill="#eeeeee" stroke="none" font-family="Arial" font-size="24px" font-style="normal" font-weight="normal" text-decoration="none" x="400" y="600"></text><g transform="translate(-38,-14) scale(1,1)"><path fill="#C0C0C0" stroke="none" d="M 263 40.5 C 263 35.2532944 267.2532944 31 272.5 31 C 277.7467056 31 282 35.2532944 282 40.5 C 282 45.7467056 277.7467056 50 272.5 50 C 267.2532944 50 263 45.7467056 263 40.5 Z" opacity="0.2"/></g><g transform="translate(-38,-14) scale(1,1)"><path fill="#000000" stroke="none" d="M 256 33.5 C 256 28.2532944 260.2532944 24 265.5 24 C 270.7467056 24 275 28.2532944 275 33.5 C 275 38.7467056 270.7467056 43 265.5 43 C 260.2532944 43 256 38.7467056 256 33.5 Z"/></g><g transform="translate(-38,-14) scale(1,1)"><path fill="#C0C0C0" stroke="none" d="M 249 71 L 295.0654296875 71 Q 305.0654296875 71 305.0654296875 81 L 305.0654296875 101 Q 305.0654296875 111 295.0654296875 111 L 249 111 Q 239 111 239 101 L 239 81 Q 239 71 249 71 Z" opacity="0.2"/></g><g transform="translate(-38,-14) scale(1,1)"><path fill="#ffffff" stroke="none" d="M 242 64 L 288.0654296875 64 Q 298.0654296875 64 298.0654296875 74 L 298.0654296875 94 Q 298.0654296875 104 288.0654296875 104 L 242 104 Q 232 104 232 94 L 232 74 Q 232 64 242 64 Z"/></g><g transform="translate(-38,-14) scale(1,1)"><path fill="none" stroke="#000000" d="M 242 64 L 288.0654296875 64 Q 298.0654296875 64 298.0654296875 74 L 298.0654296875 94 Q 298.0654296875 104 288.0654296875 104 L 242 104 Q 232 104 232 94 L 232 74 Q 232 64 242 64 Z" stroke-miterlimit="10"/></g><g transform="translate(-38,-14) scale(1,1)"><g><path fill="none" stroke="none"/><text fill="#000000" stroke="none" font-family="Arial" font-size="13px" font-style="normal" font-weight="bold" text-decoration="none" x="238.29638671875" y="83.5">Enter Pin</text></g></g><g transform="translate(-38,-14) scale(1,1)"><path fill="#C0C0C0" stroke="none" d="M 97 207 L 145.236328125 207 Q 155.236328125 207 155.236328125 217 L 155.236328125 237 Q 155.236328125 247 145.236328125 247 L 97 247 Q 87 247 87 237 L 87 217 Q 87 207 97 207 Z" opacity="0.2"/></g><g transform="translate(-38,-14) scale(1,1)"><path fill="#ffffff" stroke="none" d="M 90 200 L 138.236328125 200 Q 148.236328125 200 148.236328125 210 L 148.236328125 230 Q 148.236328125 240 138.236328125 240 L 90 240 Q 80 240 80 230 L 80 210 Q 80 200 90 200 Z"/></g><g transform="translate(-38,-14) scale(1,1)"><path fill="none" stroke="#000000" d="M 90 200 L 138.236328125 200 Q 148.236328125 200 148.236328125 210 L 148.236328125 230 Q 148.236328125 240 138.236328125 240 L 90 240 Q 80 240 80 230 L 80 210 Q 80 200 90 200 Z" stroke-miterlimit="10"/></g><g transform="translate(-38,-14) scale(1,1)"><g><path fill="none" stroke="none"/><text fill="#000000" stroke="none" font-family="Arial" font-size="13px" font-style="normal" font-weight="bold" text-decoration="none" x="86.5439453125" y="219.5">Try Again</text></g></g><g transform="translate(-38,-14) scale(1,1)"><path fill="#C0C0C0" stroke="none" d="M 337 199 L 426.3818359375 199 Q 436.3818359375 199 436.3818359375 209 L 436.3818359375 229 Q 436.3818359375 239 426.3818359375 239 L 337 239 Q 327 239 327 229 L 327 209 Q 327 199 337 199 Z" opacity="0.2"/></g><g transform="translate(-38,-14) scale(1,1)"><path fill="#ffffff" stroke="none" d="M 330 192 L 419.3818359375 192 Q 429.3818359375 192 429.3818359375 202 L 429.3818359375 222 Q 429.3818359375 232 419.3818359375 232 L 330 232 Q 320 232 320 222 L 320 202 Q 320 192 330 192 Z"/></g><g transform="translate(-38,-14) scale(1,1)"><path fill="none" stroke="#000000" d="M 330 192 L 419.3818359375 192 Q 429.3818359375 192 429.3818359375 202 L 429.3818359375 222 Q 429.3818359375 232 419.3818359375 232 L 330 232 Q 320 232 320 222 L 320 202 Q 320 192 330 192 Z" stroke-miterlimit="10"/></g><g transform="translate(-38,-14) scale(1,1)"><g><path fill="none" stroke="none"/><text fill="#000000" stroke="none" font-family="Arial" font-size="13px" font-style="normal" font-weight="bold" text-decoration="none" x="333.13916015625" y="211.5">Select amount</text></g></g><g transform="translate(-38,-14) scale(1,1)"><path fill="none" stroke="#000000" d="M 265 44 L 265 63" stroke-miterlimit="10"/></g><g transform="translate(-38,-14) scale(1,1)"><path fill="none" stroke="#000000" d="M 260.790482243984 52.837325142375846 L 265 63 L 269.209517756016 52.837325142375846" stroke-miterlimit="10"/></g><g transform="translate(-38,-14) scale(1,1)"><path fill="#C0C0C0" stroke="none" d="M 263 176.5 L 274.5 167 L 285 176.5 L 274.5 185 L 263 176.5" opacity="0.2"/></g><g transform="translate(-38,-14) scale(1,1)"><path fill="#ffffff" stroke="none" d="M 256 169 L 267 160 L 278 169 L 267 178 L 256 169"/></g><g transform="translate(-38,-14) scale(1,1)"><path fill="none" stroke="#000000" d="M 256 169 L 267 160 L 278 169 L 267 178 L 256 169 L 256 169" stroke-miterlimit="10"/></g><g transform="translate(-38,-14) scale(1,1)"><path fill="none" stroke="#000000" d="M 265 105 L 267 159" stroke-miterlimit="10"/></g><g transform="translate(-38,-14) scale(1,1)"><path fill="none" stroke="#000000" d="M 262.41722899170594 149.0000895061236 L 267 159 L 270.8304960648887 148.68848702193162" stroke-miterlimit="10"/></g><g transform="translate(-38,-14) scale(1,1)"><path fill="none" stroke="#000000" d="M 255 169 L 112 168 L 113 199" stroke-miterlimit="10"/></g><g transform="translate(-38,-14) scale(1,1)"><path fill="none" stroke="#000000" d="M 108.46501292387973 188.97832887092068 L 113 199 L 116.87967150007542 188.70688827168857" stroke-miterlimit="10"/></g><g transform="translate(-38,-14) scale(1,1)"><g><path fill="none" stroke="none"/><text fill="#000000" stroke="none" font-family="Arial" font-size="13px" font-style="normal" font-weight="normal" text-decoration="none" x="126.5" y="164.5">Wrong</text></g></g><g transform="translate(-38,-14) scale(1,1)"><path fill="none" stroke="#000000" d="M 279 169 L 376 168 L 375 191" stroke-miterlimit="10"/></g><g transform="translate(-38,-14) scale(1,1)"><path fill="none" stroke="#000000" d="M 371.23589374918504 180.6640673312673 L 375 191 L 379.6469830248906 181.02976686499363" stroke-miterlimit="10"/></g><g transform="translate(-38,-14) scale(1,1)"><g><path fill="none" stroke="none"/><text fill="#000000" stroke="none" font-family="Arial" font-size="13px" font-style="normal" font-weight="normal" text-decoration="none" x="310.825927734375" y="163.5">Right</text></g></g><g transform="translate(-38,-14) scale(1,1)"><path fill="none" stroke="#000000" d="M 79 218 L 48 216 L 48 88 L 231 85" stroke-miterlimit="10"/></g><g transform="translate(-38,-14) scale(1,1)"><path fill="none" stroke="#000000" d="M 220.9076896678519 89.37553107172339 L 231 85 L 220.769691234191 80.95762661840706" stroke-miterlimit="10"/></g><g transform="translate(-38,-14) scale(1,1)"><path fill="#C0C0C0" stroke="none" d="M 249 311 L 321.78271484375 311 Q 331.78271484375 311 331.78271484375 321 L 331.78271484375 341 Q 331.78271484375 351 321.78271484375 351 L 249 351 Q 239 351 239 341 L 239 321 Q 239 311 249 311 Z" opacity="0.2"/></g><g transform="translate(-38,-14) scale(1,1)"><path fill="#ffffff" stroke="none" d="M 242 304 L 314.78271484375 304 Q 324.78271484375 304 324.78271484375 314 L 324.78271484375 334 Q 324.78271484375 344 314.78271484375 344 L 242 344 Q 232 344 232 334 L 232 314 Q 232 304 242 304 Z"/></g><g transform="translate(-38,-14) scale(1,1)"><path fill="none" stroke="#000000" d="M 242 304 L 314.78271484375 304 Q 324.78271484375 304 324.78271484375 314 L 324.78271484375 334 Q 324.78271484375 344 314.78271484375 344 L 242 344 Q 232 344 232 334 L 232 314 Q 232 304 242 304 Z" stroke-miterlimit="10"/></g><g transform="translate(-38,-14) scale(1,1)"><g><path fill="none" stroke="none"/><text fill="#000000" stroke="none" font-family="Arial" font-size="13px" font-style="normal" font-weight="bold" text-decoration="none" x="239.369140625" y="323.5">Enter amount</text></g></g><g transform="translate(-38,-14) scale(1,1)"><path fill="#C0C0C0" stroke="none" d="M 457 303 L 546.3818359375 303 Q 556.3818359375 303 556.3818359375 313 L 556.3818359375 333 Q 556.3818359375 343 546.3818359375 343 L 457 343 Q 447 343 447 333 L 447 313 Q 447 303 457 303 Z" opacity="0.2"/></g><g transform="translate(-38,-14) scale(1,1)"><path fill="#ffffff" stroke="none" d="M 450 296 L 539.3818359375 296 Q 549.3818359375 296 549.3818359375 306 L 549.3818359375 326 Q 549.3818359375 336 539.3818359375 336 L 450 336 Q 440 336 440 326 L 440 306 Q 440 296 450 296 Z"/></g><g transform="translate(-38,-14) scale(1,1)"><path fill="none" stroke="#000000" d="M 450 296 L 539.3818359375 296 Q 549.3818359375 296 549.3818359375 306 L 549.3818359375 326 Q 549.3818359375 336 539.3818359375 336 L 450 336 Q 440 336 440 326 L 440 306 Q 440 296 450 296 Z" stroke-miterlimit="10"/></g><g transform="translate(-38,-14) scale(1,1)"><g><path fill="none" stroke="none"/><text fill="#000000" stroke="none" font-family="Arial" font-size="13px" font-style="normal" font-weight="bold" text-decoration="none" x="448.080078125" y="315.5">Choose Amount</text></g></g><g transform="translate(-38,-14) scale(1,1)"><path fill="#C0C0C0" stroke="none" d="M 367 272.5 L 378.5 263 L 389 272.5 L 378.5 281 L 367 272.5" opacity="0.2"/></g><g transform="translate(-38,-14) scale(1,1)"><path fill="#ffffff" stroke="none" d="M 360 265 L 371 256 L 382 265 L 371 274 L 360 265"/></g><g transform="translate(-38,-14) scale(1,1)"><path fill="none" stroke="#000000" d="M 360 265 L 371 256 L 382 265 L 371 274 L 360 265 L 360 265" stroke-miterlimit="10"/></g><g transform="translate(-38,-14) scale(1,1)"><path fill="none" stroke="#000000" d="M 373 233 L 372 255" stroke-miterlimit="10"/></g><g transform="translate(-38,-14) scale(1,1)"><path fill="none" stroke="#000000" d="M 368.25628748624484 244.6566631779511 L 372 255 L 376.66663910167813 245.0389518877435" stroke-miterlimit="10"/></g><g transform="translate(-38,-14) scale(1,1)"><path fill="none" stroke="#000000" d="M 359 265 L 280 264 L 279 303" stroke-miterlimit="10"/></g><g transform="translate(-38,-14) scale(1,1)"><path fill="none" stroke="#000000" d="M 275.0523611490146 292.73276339504196 L 279 303 L 283.4686304262053 292.94856517138015" stroke-miterlimit="10"/></g><g transform="translate(-38,-14) scale(1,1)"><g><path fill="none" stroke="none"/><text fill="#000000" stroke="none" font-family="Arial" font-size="13px" font-style="normal" font-weight="normal" text-decoration="none" x="248.5" y="251.5">choose another</text></g></g><g transform="translate(-38,-14) scale(1,1)"><path fill="none" stroke="#000000" d="M 383 265 L 488 264 L 492 295" stroke-miterlimit="10"/></g><g transform="translate(-38,-14) scale(1,1)"><path fill="none" stroke="#000000" d="M 486.5245623649495 285.4595816284257 L 492 295 L 494.8743754441887 284.38218639239483" stroke-miterlimit="10"/></g><g transform="translate(-38,-14) scale(1,1)"><g><path fill="none" stroke="none"/><text fill="#000000" stroke="none" font-family="Arial" font-size="13px" font-style="normal" font-weight="normal" text-decoration="none" x="428.5" y="251.5">choose available amount </text></g></g><g transform="translate(-38,-14) scale(1,1)"><path fill="#C0C0C0" stroke="none" d="M 383 392.5 L 394.5 383 L 405 392.5 L 394.5 401 L 383 392.5" opacity="0.2"/></g><g transform="translate(-38,-14) scale(1,1)"><path fill="#ffffff" stroke="none" d="M 376 385 L 387 376 L 398 385 L 387 394 L 376 385"/></g><g transform="translate(-38,-14) scale(1,1)"><path fill="none" stroke="#000000" d="M 376 385 L 387 376 L 398 385 L 387 394 L 376 385 L 376 385" stroke-miterlimit="10"/></g><g transform="translate(-38,-14) scale(1,1)"><path fill="none" stroke="#000000" d="M 279 345 L 280 384 L 375 385" stroke-miterlimit="10"/></g><g transform="translate(-38,-14) scale(1,1)"><path fill="none" stroke="#000000" d="M 364.793579866131 389.1023149624271 L 375 385 L 364.8821963832071 380.6837458401975" stroke-miterlimit="10"/></g><g transform="translate(-38,-14) scale(1,1)"><path fill="none" stroke="#000000" d="M 495 337 L 496 384 L 399 385" stroke-miterlimit="10"/></g><g transform="translate(-38,-14) scale(1,1)"><path fill="none" stroke="#000000" d="M 409.1187400656224 380.68594164569276 L 399 385 L 409.20552963423074 389.1045298007005" stroke-miterlimit="10"/></g><g transform="translate(-38,-14) scale(1,1)"><path fill="#C0C0C0" stroke="none" d="M 369 431 L 420.1435546875 431 Q 430.1435546875 431 430.1435546875 441 L 430.1435546875 461 Q 430.1435546875 471 420.1435546875 471 L 369 471 Q 359 471 359 461 L 359 441 Q 359 431 369 431 Z" opacity="0.2"/></g><g transform="translate(-38,-14) scale(1,1)"><path fill="#ffffff" stroke="none" d="M 362 424 L 413.1435546875 424 Q 423.1435546875 424 423.1435546875 434 L 423.1435546875 454 Q 423.1435546875 464 413.1435546875 464 L 362 464 Q 352 464 352 454 L 352 434 Q 352 424 362 424 Z"/></g><g transform="translate(-38,-14) scale(1,1)"><path fill="none" stroke="#000000" d="M 362 424 L 413.1435546875 424 Q 423.1435546875 424 423.1435546875 434 L 423.1435546875 454 Q 423.1435546875 464 413.1435546875 464 L 362 464 Q 352 464 352 454 L 352 434 Q 352 424 362 424 Z" stroke-miterlimit="10"/></g><g transform="translate(-38,-14) scale(1,1)"><g><path fill="none" stroke="none"/><text fill="#000000" stroke="none" font-family="Arial" font-size="13px" font-style="normal" font-weight="bold" text-decoration="none" x="364.818603515625" y="443.5">Confirm</text></g></g><g transform="translate(-38,-14) scale(1,1)"><path fill="none" stroke="#000000" d="M 387 395 L 387 423" stroke-miterlimit="10"/></g><g transform="translate(-38,-14) scale(1,1)"><path fill="none" stroke="#000000" d="M 382.790482243984 412.83732514237585 L 387 423 L 391.209517756016 412.83732514237585" stroke-miterlimit="10"/></g><g transform="translate(-38,-14) scale(1,1)"><path fill="#C0C0C0" stroke="none" d="M 353 543 L 438.07177734375 543 Q 448.07177734375 543 448.07177734375 553 L 448.07177734375 573 Q 448.07177734375 583 438.07177734375 583 L 353 583 Q 343 583 343 573 L 343 553 Q 343 543 353 543 Z" opacity="0.2"/></g><g transform="translate(-38,-14) scale(1,1)"><path fill="#ffffff" stroke="none" d="M 346 536 L 431.07177734375 536 Q 441.07177734375 536 441.07177734375 546 L 441.07177734375 566 Q 441.07177734375 576 431.07177734375 576 L 346 576 Q 336 576 336 566 L 336 546 Q 336 536 346 536 Z"/></g><g transform="translate(-38,-14) scale(1,1)"><path fill="none" stroke="#000000" d="M 346 536 L 431.07177734375 536 Q 441.07177734375 536 441.07177734375 546 L 441.07177734375 566 Q 441.07177734375 576 431.07177734375 576 L 346 576 Q 336 576 336 566 L 336 546 Q 336 536 346 536 Z" stroke-miterlimit="10"/></g><g transform="translate(-38,-14) scale(1,1)"><g><path fill="none" stroke="none"/><text fill="#000000" stroke="none" font-family="Arial" font-size="13px" font-style="normal" font-weight="bold" text-decoration="none" x="343.734130859375" y="555.5">Return the card</text></g></g><g transform="translate(-38,-14) scale(1,1)"><path fill="#C0C0C0" stroke="none" d="M 383 504.5 L 394.5 495 L 405 504.5 L 394.5 513 L 383 504.5" opacity="0.2"/></g><g transform="translate(-38,-14) scale(1,1)"><path fill="#ffffff" stroke="none" d="M 376 497 L 387 488 L 398 497 L 387 506 L 376 497"/></g><g transform="translate(-38,-14) scale(1,1)"><path fill="none" stroke="#000000" d="M 376 497 L 387 488 L 398 497 L 387 506 L 376 497 L 376 497" stroke-miterlimit="10"/></g><g transform="translate(-38,-14) scale(1,1)"><path fill="none" stroke="#000000" d="M 387 465 L 387 487" stroke-miterlimit="10"/></g><g transform="translate(-38,-14) scale(1,1)"><path fill="none" stroke="#000000" d="M 382.790482243984 476.83732514237585 L 387 487 L 391.209517756016 476.83732514237585" stroke-miterlimit="10"/></g><g transform="translate(-38,-14) scale(1,1)"><path fill="none" stroke="#000000" d="M 387 507 L 388 535" stroke-miterlimit="10"/></g><g transform="translate(-38,-14) scale(1,1)"><path fill="none" stroke="#000000" d="M 383.43044290015257 524.9940443779101 L 388 535 L 391.8441142603102 524.6935561150473" stroke-miterlimit="10"/></g><g transform="translate(-38,-14) scale(1,1)"><g><path fill="none" stroke="none"/><text fill="#000000" stroke="none" font-family="Arial" font-size="13px" font-style="normal" font-weight="normal" text-decoration="none" x="399.5" y="525.5">agree</text></g></g><g transform="translate(-38,-14) scale(1,1)"><path fill="none" stroke="#000000" d="M 375 497 L 192 496 L 192 216 L 319 213" stroke-miterlimit="10"/></g><g transform="translate(-38,-14) scale(1,1)"><path fill="none" stroke="#000000" d="M 308.93956904408435 217.44834002536393 L 319 213 L 308.7407496524546 209.03165244637137" stroke-miterlimit="10"/></g><g transform="translate(-38,-14) scale(1,1)"><g><path fill="none" stroke="none"/><text fill="#000000" stroke="none" font-family="Arial" font-size="13px" font-style="normal" font-weight="normal" text-decoration="none" x="205.5" y="482.5">not agree</text></g></g><g transform="translate(-38,-14) scale(1,1)"><path fill="#C0C0C0" stroke="none" d="M 383 611.5 C 383 604.59644 388.59644 599 395.5 599 C 402.40356 599 408 604.59644 408 611.5 C 408 618.40356 402.40356 624 395.5 624 C 388.59644 624 383 618.40356 383 611.5 Z" opacity="0.2"/></g><g transform="translate(-38,-14) scale(1,1)"><path fill="none" stroke="#000000" d="M 376 604.5 C 376 597.59644 381.59644 592 388.5 592 C 395.40356 592 401 597.59644 401 604.5 C 401 611.40356 395.40356 617 388.5 617 C 381.59644 617 376 611.40356 376 604.5 Z" stroke-miterlimit="10"/></g><g transform="translate(-38,-14) scale(1,1)"><path fill="#000000" stroke="none" d="M 381 604.5 C 381 600.357864 384.357864 597 388.5 597 C 392.642136 597 396 600.357864 396 604.5 C 396 608.642136 392.642136 612 388.5 612 C 384.357864 612 381 608.642136 381 604.5 Z"/></g><g transform="translate(-38,-14) scale(1,1)"><path fill="none" stroke="#000000" d="M 388 577 L 388 591" stroke-miterlimit="10"/></g><g transform="translate(-38,-14) scale(1,1)"><path fill="none" stroke="#000000" d="M 383.790482243984 580.8373251423759 L 388 591 L 392.209517756016 580.8373251423759" stroke-miterlimit="10"/></g></g></svg>